<svg xmlns="http://www.w3.org/2000/svg" width="108" height="109" viewBox="0 0 108 109" version="1.1"><path d="M 38.152 15.848 C 36.564 17.436, 36.045 17.506, 34.461 16.348 C 30.624 13.542, 26 15.306, 26 19.575 C 26 21.187, 25.231 21.904, 23.027 22.345 C 19.683 23.013, 17.940 27.073, 19.752 29.974 C 20.558 31.266, 20.364 31.916, 18.898 32.832 C 14.693 35.458, 17.461 41.359, 22.700 40.935 C 24.240 40.810, 26.767 41.224, 28.315 41.854 C 33.263 43.868, 39 42.007, 39 38.387 C 39 37.070, 39.272 37.077, 41.223 38.443 C 44.178 40.513, 45.543 40.407, 47.852 37.928 C 49.776 35.863, 49.785 35.879, 50.475 42.755 C 51.468 52.636, 52.966 54.161, 52.985 45.309 C 53.001 37.428, 54.442 35.061, 56.272 39.909 C 57.687 43.659, 58.332 43.762, 59.830 40.475 L 60.980 37.949 64.950 39.975 C 72.761 43.959, 77 42.332, 77 35.347 C 77 27.759, 73.563 23.558, 69.246 25.869 C 67.661 26.716, 67.180 26.186, 65.665 21.919 C 62.843 13.975, 56.986 11.879, 52.141 17.080 L 50.226 19.135 47.658 16.567 C 44.640 13.550, 40.745 13.255, 38.152 15.848 M 21.211 18.601 C 20.501 19.370, 20.362 20, 20.902 20 C 21.940 20, 23.443 18.098, 22.850 17.534 C 22.658 17.351, 21.920 17.831, 21.211 18.601 M 17.405 21.155 C 16.962 21.870, 17.130 22.038, 17.845 21.595 C 18.480 21.203, 19 20.684, 19 20.441 C 19 19.607, 18.117 20.002, 17.405 21.155 M 73.333 22.667 C 73.700 23.033, 74.300 23.033, 74.667 22.667 C 75.033 22.300, 74.733 22, 74 22 C 73.267 22, 72.967 22.300, 73.333 22.667 M 15.079 27.583 C 15.127 28.748, 15.364 28.985, 15.683 28.188 C 15.972 27.466, 15.936 26.603, 15.604 26.271 C 15.272 25.939, 15.036 26.529, 15.079 27.583 M 14.405 32.155 C 13.962 32.870, 14.130 33.038, 14.845 32.595 C 15.480 32.203, 16 31.684, 16 31.441 C 16 30.607, 15.117 31.002, 14.405 32.155 M 80 32 C 80 32.733, 80.300 33.033, 80.667 32.667 C 81.033 32.300, 81.033 31.700, 80.667 31.333 C 80.300 30.967, 80 31.267, 80 32 M 83.006 37.750 C 83.014 38.672, 89.108 42.225, 89.688 41.645 C 90.210 41.123, 85.042 37, 83.865 37 C 83.389 37, 83.003 37.337, 83.006 37.750 M 90.500 39 C 90.840 39.550, 91.343 40, 91.618 40 C 91.893 40, 91.840 39.550, 91.500 39 C 91.160 38.450, 90.657 38, 90.382 38 C 90.107 38, 90.160 38.450, 90.500 39 M 37.814 44.360 C 34.559 46.203, 33.625 46.313, 29.823 45.298 C 24.483 43.873, 23.061 50.739, 23.016 78.168 C 22.993 92.227, 22.983 92.217, 40 93.497 C 67.475 95.564, 70.449 93.358, 69.643 71.500 C 68.652 44.621, 66.515 37.472, 61.514 44.311 C 60.929 45.112, 59.561 45.936, 58.475 46.143 C 57.026 46.419, 56.367 47.555, 56 50.408 C 54.953 58.551, 49.764 57.412, 48.133 48.680 C 47.642 46.055, 47.074 43.767, 46.870 43.594 C 45.243 42.219, 40.955 42.581, 37.814 44.360 M 20 45 C 20 45.733, 20.300 46.033, 20.667 45.667 C 21.033 45.300, 21.033 44.700, 20.667 44.333 C 20.300 43.967, 20 44.267, 20 45 M 38 47.584 C 36.075 48.336, 33.097 48.728, 31.381 48.455 C 27.517 47.840, 27.364 48.550, 26.386 71.635 C 25.723 87.312, 25.762 87.802, 27.786 88.885 C 30.897 90.551, 30.995 90.427, 31.058 84.750 C 31.186 73.064, 32.605 70.694, 33.464 80.729 L 34.255 89.957 37.785 90.619 C 42.403 91.486, 62.683 90.240, 65.112 88.940 C 66.700 88.090, 66.995 86.782, 66.971 80.715 C 66.936 72.024, 65.235 47.902, 64.614 47.280 C 63.382 46.049, 60.156 49.356, 59.576 52.444 C 57.797 61.928, 46.854 60.835, 45.202 51.009 C 44.358 45.984, 43.339 45.499, 38 47.584 M 95.195 51.500 C 95.215 53.150, 95.439 53.704, 95.693 52.731 C 95.947 51.758, 95.930 50.408, 95.656 49.731 C 95.382 49.054, 95.175 49.850, 95.195 51.500 M 88.232 53 C 88.232 54.925, 88.438 55.712, 88.689 54.750 C 88.941 53.788, 88.941 52.212, 88.689 51.250 C 88.438 50.288, 88.232 51.075, 88.232 53 M 19.158 57 C 19.158 58.375, 19.385 58.938, 19.662 58.250 C 19.940 57.563, 19.940 56.438, 19.662 55.750 C 19.385 55.063, 19.158 55.625, 19.158 57 M 73.158 58 C 73.158 59.375, 73.385 59.938, 73.662 59.250 C 73.940 58.563, 73.940 57.438, 73.662 56.750 C 73.385 56.063, 73.158 56.625, 73.158 58 M 93.638 62.500 C 93.955 63.325, 94.391 64, 94.607 64 C 94.823 64, 95 63.325, 95 62.500 C 95 61.675, 94.564 61, 94.031 61 C 93.499 61, 93.322 61.675, 93.638 62.500 M 81.405 68.250 L 79.500 70.500 81.750 68.595 C 82.987 67.547, 84 66.535, 84 66.345 C 84 65.545, 83.195 66.136, 81.405 68.250 M 18.349 81 C 18.349 85.675, 18.522 87.587, 18.732 85.250 C 18.943 82.912, 18.943 79.087, 18.732 76.750 C 18.522 74.412, 18.349 76.325, 18.349 81 M 74.300 82 C 74.300 85.025, 74.487 86.263, 74.716 84.750 C 74.945 83.237, 74.945 80.763, 74.716 79.250 C 74.487 77.737, 74.300 78.975, 74.300 82 M 20.500 93 C 20.840 93.550, 21.343 94, 21.618 94 C 21.893 94, 21.840 93.550, 21.500 93 C 21.160 92.450, 20.657 92, 20.382 92 C 20.107 92, 20.160 92.450, 20.500 93 M 67 95.059 C 67 95.641, 67.450 95.840, 68 95.500 C 68.550 95.160, 69 94.684, 69 94.441 C 69 94.198, 68.550 94, 68 94 C 67.450 94, 67 94.477, 67 95.059 M 28.333 96.667 C 28.700 97.033, 29.300 97.033, 29.667 96.667 C 30.033 96.300, 29.733 96, 29 96 C 28.267 96, 27.967 96.300, 28.333 96.667 M 35.813 97.683 C 36.534 97.972, 37.397 97.936, 37.729 97.604 C 38.061 97.272, 37.471 97.036, 36.417 97.079 C 35.252 97.127, 35.015 97.364, 35.813 97.683 M 56.333 97.667 C 56.700 98.033, 57.300 98.033, 57.667 97.667 C 58.033 97.300, 57.733 97, 57 97 C 56.267 97, 55.967 97.300, 56.333 97.667" stroke="none" fill="#eeeeee" fill-rule="evenodd"/><path d="M 38.500 11.998 C 37.400 12.469, 35.040 12.613, 33.257 12.318 C 27.953 11.438, 25.026 12.694, 23.421 16.536 C 22.625 18.441, 21.374 20, 20.642 20 C 18.297 20, 16 23.550, 16 27.175 C 16 29.110, 15.303 32.091, 14.450 33.800 C 12.496 37.716, 14.550 42.598, 18.578 43.609 C 20.406 44.068, 20.943 44.703, 20.490 45.873 C 20.144 46.768, 19.610 57.175, 19.303 69 L 18.746 90.500 21.123 92.654 C 27.986 98.874, 61.971 99.831, 68.250 93.981 C 69.420 92.892, 70.670 92, 71.028 92 C 72.423 92, 74 86.669, 74 81.953 C 74 77.634, 74.261 77, 76.040 77 C 94.555 77, 102.312 41.069, 84.922 35.858 C 81.635 34.874, 80.832 34.093, 80.020 31.090 C 78.571 25.728, 76.335 23.153, 72.505 22.435 C 70.379 22.036, 68.838 21.065, 68.465 19.890 C 66.337 13.186, 58.817 9.492, 53.204 12.395 C 50.503 13.791, 49.848 13.802, 47.332 12.489 C 44.195 10.853, 41.518 10.704, 38.500 11.998 M 38.152 15.848 C 36.564 17.436, 36.045 17.506, 34.461 16.348 C 30.624 13.542, 26 15.306, 26 19.575 C 26 21.187, 25.231 21.904, 23.027 22.345 C 19.683 23.013, 17.940 27.073, 19.752 29.974 C 20.558 31.266, 20.364 31.916, 18.898 32.832 C 14.693 35.458, 17.461 41.359, 22.700 40.935 C 24.240 40.810, 26.767 41.224, 28.315 41.854 C 33.263 43.868, 39 42.007, 39 38.387 C 39 37.070, 39.272 37.077, 41.223 38.443 C 44.178 40.513, 45.543 40.407, 47.852 37.928 C 49.776 35.863, 49.785 35.879, 50.475 42.755 C 51.468 52.636, 52.966 54.161, 52.985 45.309 C 53.001 37.428, 54.442 35.061, 56.272 39.909 C 57.687 43.659, 58.332 43.762, 59.830 40.475 L 60.980 37.949 64.950 39.975 C 72.761 43.959, 77 42.332, 77 35.347 C 77 27.759, 73.563 23.558, 69.246 25.869 C 67.661 26.716, 67.180 26.186, 65.665 21.919 C 62.843 13.975, 56.986 11.879, 52.141 17.080 L 50.226 19.135 47.658 16.567 C 44.640 13.550, 40.745 13.255, 38.152 15.848 M 83.006 37.750 C 83.014 38.672, 89.108 42.225, 89.688 41.645 C 90.210 41.123, 85.042 37, 83.865 37 C 83.389 37, 83.003 37.337, 83.006 37.750 M 37.814 44.360 C 34.559 46.203, 33.625 46.313, 29.823 45.298 C 24.483 43.873, 23.061 50.739, 23.016 78.168 C 22.993 92.227, 22.983 92.217, 40 93.497 C 67.475 95.564, 70.449 93.358, 69.643 71.500 C 68.652 44.621, 66.515 37.472, 61.514 44.311 C 60.929 45.112, 59.561 45.936, 58.475 46.143 C 57.026 46.419, 56.367 47.555, 56 50.408 C 54.953 58.551, 49.764 57.412, 48.133 48.680 C 47.642 46.055, 47.074 43.767, 46.870 43.594 C 45.243 42.219, 40.955 42.581, 37.814 44.360 M 76.156 43.885 L 72.813 45.500 73.448 57.492 C 74.137 70.499, 74.549 71.581, 78.436 70.605 C 87.342 68.370, 91.801 50.376, 84.889 44.560 C 81.458 41.673, 80.837 41.625, 76.156 43.885 M 38 47.584 C 36.075 48.336, 33.097 48.728, 31.381 48.455 C 27.517 47.840, 27.364 48.550, 26.386 71.635 C 25.723 87.312, 25.762 87.802, 27.786 88.885 C 30.897 90.551, 30.995 90.427, 31.058 84.750 C 31.186 73.064, 32.605 70.694, 33.464 80.729 L 34.255 89.957 37.785 90.619 C 42.403 91.486, 62.683 90.240, 65.112 88.940 C 66.700 88.090, 66.995 86.782, 66.971 80.715 C 66.936 72.024, 65.235 47.902, 64.614 47.280 C 63.382 46.049, 60.156 49.356, 59.576 52.444 C 57.797 61.928, 46.854 60.835, 45.202 51.009 C 44.358 45.984, 43.339 45.499, 38 47.584" stroke="none" fill="#131313" fill-rule="evenodd"/></svg>